<svg width="48" height="44" viewBox="0 0 48 44" fill="none" xmlns="http://www.w3.org/2000/svg">
<path d="M38.5 14.2083H5.5C4.74833 14.2083 4.125 13.585 4.125 12.8333C4.125 12.0817 4.74833 11.4583 5.5 11.4583H38.5C39.2517 11.4583 39.875 12.0817 39.875 12.8333C39.875 13.585 39.2517 14.2083 38.5 14.2083Z" fill="white"/>
<path d="M38.5 23.375H5.5C4.74833 23.375 4.125 22.7517 4.125 22C4.125 21.2483 4.74833 20.625 5.5 20.625H38.5C39.2517 20.625 39.875 21.2483 39.875 22C39.875 22.7517 39.2517 23.375 38.5 23.375Z" fill="white"/>
<path d="M10.6321 28.7273H12.5284L14.5312 33.6136H14.6165L16.6193 28.7273H18.5156V36H17.0241V31.2663H16.9638L15.0817 35.9645H14.0661L12.1839 31.2486H12.1236V36H10.6321V28.7273ZM19.7825 36V28.7273H24.6831V29.995H21.3201V31.728H24.4309V32.9957H21.3201V34.7322H24.6973V36H19.7825ZM31.9886 28.7273V36H30.6605L27.4964 31.4226H27.4432V36H25.9055V28.7273H27.255L30.3942 33.3011H30.4581V28.7273H31.9886ZM37.7512 28.7273H39.2889V33.4503C39.2889 33.9806 39.1622 34.4446 38.9089 34.8423C38.658 35.2401 38.3064 35.5502 37.8542 35.7727C37.402 35.9929 36.8753 36.103 36.274 36.103C35.6703 36.103 35.1423 35.9929 34.6902 35.7727C34.238 35.5502 33.8864 35.2401 33.6355 34.8423C33.3845 34.4446 33.2591 33.9806 33.2591 33.4503V28.7273H34.7967V33.3189C34.7967 33.5959 34.8571 33.8421 34.9778 34.0575C35.1009 34.273 35.2737 34.4422 35.4963 34.5653C35.7188 34.6884 35.978 34.75 36.274 34.75C36.5723 34.75 36.8315 34.6884 37.0517 34.5653C37.2742 34.4422 37.4458 34.273 37.5666 34.0575C37.6897 33.8421 37.7512 33.5959 37.7512 33.3189V28.7273Z" fill="white"/>
</svg>
