<svg width="182" height="156" viewBox="0 0 182 156" fill="none" xmlns="http://www.w3.org/2000/svg">
<path fill-rule="evenodd" clip-rule="evenodd" d="M137.03 114.508C133.881 113.085 130.859 111.765 127.86 110.358C114.894 104.271 101.852 98.3978 88.9956 91.9815C77.434 86.2105 66.3874 79.1269 55.8394 70.9822C51.498 67.631 47.4129 63.8724 43.6561 59.5933C34.2627 48.8898 31.4415 36.2113 35.5072 21.3685C37.2419 15.0293 39.5941 8.98203 41.4829 2.71897C41.6281 2.23985 41.8728 1.78519 42.1401 1.38565C42.5406 0.782345 43.0918 0.55406 43.7248 0.796131C44.3146 1.01957 44.6371 1.57052 44.6854 2.2694C44.7363 2.96682 44.7018 3.6844 44.6415 4.38537C44.1571 9.94829 42.9831 15.3506 41.927 20.7795C41.5139 22.8958 41.1403 25.0219 40.7588 27.1472C38.9311 37.3422 41.5015 45.73 47.8571 52.6831C53.5424 58.9023 59.8935 63.926 66.6085 68.3403C76.8784 75.0936 87.8057 80.1222 98.4446 85.9087C111.818 93.1794 125.614 99.208 139.139 106.035C139.382 106.158 139.622 106.362 139.986 106.168C137.091 103.743 134.22 101.368 131.602 98.5922C129.892 96.7779 128.215 94.919 126.774 92.7777C126.002 91.6321 125.331 90.4058 125.123 88.9097C124.774 86.3914 126.238 84.7433 128.3 85.3274C129.313 85.6148 130.183 86.2626 131.052 86.9163C135.937 90.6001 140.211 95.226 144.616 99.649C147 102.041 149.372 104.455 151.806 106.773C153.947 108.816 155.851 111.114 157.503 113.722C159.586 117.011 159.118 120.682 156.292 123.081C154.657 124.469 152.783 125.223 150.875 125.801C144.828 127.632 138.668 128.818 132.445 128.877C125.592 128.943 118.771 129.556 111.935 129.906C110.521 129.978 109.103 130.066 107.69 130.005C105.604 129.915 104.239 128.65 103.925 126.684C103.614 124.745 104.514 122.938 106.367 121.863C107.722 121.079 109.181 120.662 110.639 120.262C113.403 119.508 116.194 118.908 119.005 118.497C124.946 117.627 130.699 115.476 136.673 114.84C136.734 114.832 136.791 114.732 137.03 114.508Z" fill="white"/>
<path fill-rule="evenodd" clip-rule="evenodd" d="M37.8408 63.1545C34.227 59.7821 31.3925 55.5907 29.003 50.9395C27.3537 47.7269 26.312 44.2287 25.7418 40.5247C25.5027 38.9724 25.5175 37.4146 25.8689 35.8911C26.235 34.3037 27.294 33.3868 28.4544 33.5538C29.6316 33.727 30.4877 34.8959 30.4099 36.6069C30.171 41.9224 32.047 46.3143 34.4498 50.4933C35.9948 53.1858 37.829 55.5798 39.7964 57.834C40.6852 58.8486 41.5039 59.9503 41.9087 61.3698C42.6071 63.8291 41.8828 64.4639 39.8863 64.2167C39.126 64.1212 38.4821 63.6371 37.8408 63.1545Z" fill="white"/>
<path fill-rule="evenodd" clip-rule="evenodd" d="M31.3461 30.1976C30.6741 31.4018 29.3563 31.7073 28.3321 30.8974C27.2695 30.0585 26.9738 28.3998 27.6683 27.1735C28.339 25.9885 29.6746 25.6759 30.6927 26.467C31.7431 27.2815 32.0368 28.9596 31.3461 30.1976Z" fill="white"/>
</svg>
