<svg width="111" height="47" viewBox="0 0 111 47" fill="none" xmlns="http://www.w3.org/2000/svg">
<path d="M13.1849 25.6473H11.5559L11.374 17.6255H13.374L13.1849 25.6473ZM12.334 30.0545L11.0322 28.7309L12.3849 27.3855L13.694 28.7309L12.334 30.0545Z" fill="white"/>
<circle cx="11.5" cy="23" r="10.5" stroke="white"/>
<path d="M36.6693 28.6655C36.6402 29.3345 36.5165 29.9358 36.2984 30.4691C36.0802 31.0073 35.7796 31.463 35.3965 31.8364C35.0135 32.2145 34.5505 32.5055 34.0074 32.7091C33.4644 32.9127 32.8511 33.0145 32.1674 33.0145H31.2656V31.2036H32.1674C32.6329 31.2036 33.0353 31.1552 33.3747 31.0582C33.7141 30.9612 33.9929 30.8061 34.2111 30.5927C34.4293 30.3794 34.5917 30.1006 34.6984 29.7564C34.805 29.417 34.8584 29.0024 34.8584 28.5127V24.0836H36.6693V28.6655ZM40.3126 29.1091H38.5017V18.6218H40.3126V29.1091ZM46.6001 29.1091H46.3238C46.125 29.1091 45.9359 29.097 45.7565 29.0727C45.5819 29.0485 45.4098 28.9806 45.2401 28.8691C45.1819 29.4945 45.0389 30.0618 44.811 30.5709C44.5831 31.08 44.2777 31.5139 43.8947 31.8727C43.5165 32.2364 43.0631 32.5176 42.5347 32.7164C42.0062 32.9152 41.4122 33.0145 40.7528 33.0145H39.8438V31.2036H40.7528C41.2183 31.2036 41.6207 31.1552 41.9601 31.0582C42.2995 30.9612 42.5783 30.8061 42.7965 30.5927C43.0147 30.3794 43.1771 30.1006 43.2838 29.7564C43.3904 29.417 43.4438 29.0024 43.4438 28.5127V24.0836H45.2547V26.2582C45.2547 26.4812 45.3007 26.6606 45.3928 26.7964C45.4898 26.9321 45.5989 27.0388 45.7201 27.1164C45.8462 27.1891 45.9674 27.2376 46.0838 27.2618C46.2001 27.2861 46.2801 27.2982 46.3238 27.2982H46.6001V29.1091ZM43.0147 21.1382L44.3238 19.8145L45.6619 21.1527L44.3383 22.4764L43.0147 21.1382ZM50.5113 23C50.521 23.0339 50.5404 23.1139 50.5695 23.24C50.6034 23.3661 50.6398 23.5212 50.6786 23.7055C50.7174 23.8848 50.7562 24.0861 50.7949 24.3091C50.8386 24.5321 50.8774 24.7576 50.9113 24.9855C50.9501 25.2085 50.9792 25.4267 50.9986 25.64C51.0228 25.8533 51.0349 26.04 51.0349 26.2C51.0349 26.6994 50.9525 27.1333 50.7877 27.5018C50.6228 27.8655 50.4071 28.1661 50.1404 28.4036C49.8737 28.6412 49.5731 28.8182 49.2386 28.9345C48.9089 29.0509 48.5768 29.1091 48.2422 29.1091H46.3077V27.2982H48.2931C48.3513 27.2982 48.4337 27.2909 48.5404 27.2764C48.6519 27.257 48.761 27.2109 48.8677 27.1382C48.9792 27.0655 49.0762 26.9564 49.1586 26.8109C49.241 26.6606 49.2822 26.457 49.2822 26.2C49.2822 26.0933 49.2725 25.9648 49.2531 25.8145C49.2386 25.6594 49.2168 25.4945 49.1877 25.32C49.1586 25.1455 49.1246 24.9685 49.0859 24.7891C49.0519 24.6048 49.018 24.4327 48.984 24.2727C48.9501 24.1079 48.9162 23.96 48.8822 23.8291C48.8483 23.6933 48.8216 23.5891 48.8022 23.5164L50.5113 23ZM47.3331 31.64L48.6422 30.3164L49.9804 31.6545L48.6568 32.9782L47.3331 31.64ZM54.5626 29.1091H52.7517V18.6218H54.5626V29.1091ZM64.3288 29.1091C63.97 29.1091 63.6306 29.0485 63.3106 28.9273C62.9906 28.8061 62.7069 28.6291 62.4597 28.3964C62.3627 28.3042 62.2609 28.1927 62.1542 28.0618C62.0524 27.9309 61.9603 27.7758 61.8778 27.5964C61.7954 27.417 61.7275 27.2158 61.6742 26.9927C61.6209 26.7648 61.5942 26.5103 61.5942 26.2291C61.5942 25.9867 61.6184 25.7248 61.6669 25.4436C61.7154 25.1576 61.7687 24.8885 61.8269 24.6364C61.89 24.3842 61.9481 24.1661 62.0015 23.9818C62.0548 23.7976 62.0888 23.6836 62.1033 23.64L62.9688 23.9164L63.8269 24.1855C63.7833 24.3164 63.7372 24.4739 63.6888 24.6582C63.6403 24.8376 63.5942 25.0242 63.5506 25.2182C63.5069 25.4073 63.4706 25.5915 63.4415 25.7709C63.4124 25.9503 63.3978 26.1055 63.3978 26.2364C63.3978 26.4691 63.4294 26.6582 63.4924 26.8036C63.5603 26.9442 63.6403 27.0533 63.7324 27.1309C63.8294 27.2036 63.9239 27.2497 64.016 27.2691C64.1081 27.2885 64.2172 27.2982 64.3433 27.2982H73.0124C73.0706 27.2982 73.153 27.2909 73.2597 27.2764C73.3712 27.257 73.4803 27.2109 73.5869 27.1382C73.6984 27.0655 73.7954 26.9564 73.8778 26.8109C73.9603 26.6606 74.0015 26.457 74.0015 26.2C74.0015 26.0933 73.9918 25.9648 73.9724 25.8145C73.9578 25.6594 73.936 25.4945 73.9069 25.32C73.8778 25.1455 73.8439 24.9685 73.8051 24.7891C73.7712 24.6048 73.7372 24.4303 73.7033 24.2655C73.6888 24.2024 73.6766 24.1418 73.6669 24.0836L75.3833 23.6327C75.3881 23.657 75.393 23.6788 75.3978 23.6982C75.4366 23.8824 75.4754 24.0861 75.5142 24.3091C75.5578 24.5321 75.5966 24.7576 75.6306 24.9855C75.6694 25.2085 75.6984 25.4267 75.7178 25.64C75.7421 25.8533 75.7542 26.04 75.7542 26.2C75.7542 26.6994 75.6718 27.1333 75.5069 27.5018C75.3421 27.8655 75.1263 28.1661 74.8597 28.4036C74.593 28.6412 74.2924 28.8182 73.9578 28.9345C73.6281 29.0509 73.296 29.1091 72.9615 29.1091H64.3288ZM70.1978 23.4727L68.976 22.2364L70.1833 20.9855L71.4342 22.2364L70.1978 23.4727ZM67.1506 23.48L65.9288 22.2436L67.1287 20.9927L68.3797 22.2436L67.1506 23.48ZM81.1456 29.1091C80.6123 29.1091 80.1541 29.0752 79.7711 29.0073C79.388 28.9442 79.0656 28.8497 78.8038 28.7236C78.542 28.5927 78.3311 28.4279 78.1711 28.2291C78.0159 28.0303 77.8971 27.7976 77.8147 27.5309C77.7323 27.2642 77.6765 26.9636 77.6474 26.6291C77.6232 26.2897 77.6111 25.9164 77.6111 25.5091V18.6218H79.422V25.5091C79.422 25.897 79.4341 26.2073 79.4584 26.44C79.4874 26.6727 79.5577 26.8545 79.6693 26.9855C79.7856 27.1115 79.9577 27.1964 80.1856 27.24C80.4184 27.2788 80.7384 27.2982 81.1456 27.2982V29.1091ZM88.6655 27.2982V29.1091H87.5891C87.177 29.1091 86.8012 29.0533 86.4618 28.9418C86.1224 28.8303 85.8364 28.6655 85.6036 28.4473C85.3321 28.6752 85.0097 28.8424 84.6364 28.9491C84.2679 29.0558 83.8461 29.1091 83.3709 29.1091H80.8545V27.2982H83.3709C83.6667 27.2982 83.9018 27.2715 84.0764 27.2182C84.2558 27.16 84.3891 27.0897 84.4764 27.0073C84.5685 26.9248 84.6267 26.8327 84.6509 26.7309C84.68 26.6291 84.6945 26.5297 84.6945 26.4327V24.0764H86.4982V26.3818C86.4982 26.6 86.5467 26.7721 86.6436 26.8982C86.7406 27.0194 86.8497 27.1115 86.9709 27.1745C87.097 27.2327 87.2206 27.2691 87.3418 27.2836C87.463 27.2933 87.5455 27.2982 87.5891 27.2982H88.6655ZM85.7564 33.1091L84.5345 31.8727L85.7418 30.6218L86.9927 31.8727L85.7564 33.1091ZM82.7091 33.1164L81.4873 31.88L82.6873 30.6291L83.9382 31.88L82.7091 33.1164ZM93.7738 23C93.7835 23.0339 93.8029 23.1139 93.832 23.24C93.8659 23.3661 93.9023 23.5212 93.9411 23.7055C93.9799 23.8848 94.0187 24.0861 94.0574 24.3091C94.1011 24.5321 94.1399 24.7576 94.1738 24.9855C94.2126 25.2085 94.2417 25.4267 94.2611 25.64C94.2853 25.8533 94.2974 26.04 94.2974 26.2C94.2974 26.6994 94.215 27.1333 94.0502 27.5018C93.8853 27.8655 93.6696 28.1661 93.4029 28.4036C93.1362 28.6412 92.8356 28.8182 92.5011 28.9345C92.1714 29.0509 91.8393 29.1091 91.5047 29.1091H88.3702V27.2982H91.5556C91.6138 27.2982 91.6962 27.2909 91.8029 27.2764C91.9144 27.257 92.0235 27.2109 92.1302 27.1382C92.2417 27.0655 92.3387 26.9564 92.4211 26.8109C92.5035 26.6606 92.5447 26.457 92.5447 26.2C92.5447 26.0933 92.535 25.9648 92.5156 25.8145C92.5011 25.6594 92.4793 25.4945 92.4502 25.32C92.4211 25.1455 92.3871 24.9685 92.3484 24.7891C92.3144 24.6048 92.2805 24.4327 92.2465 24.2727C92.2126 24.1079 92.1787 23.96 92.1447 23.8291C92.1108 23.6933 92.0841 23.5891 92.0647 23.5164L93.7738 23ZM89.3302 22.8836V21.8L90.232 21.5091C90.0865 21.3588 89.9653 21.1891 89.8684 21C89.7762 20.8109 89.7302 20.6097 89.7302 20.3964C89.7302 20.2315 89.7593 20.0691 89.8174 19.9091C89.8756 19.7491 89.9556 19.6012 90.0574 19.4655C90.1593 19.3297 90.278 19.2109 90.4138 19.1091C90.5544 19.0073 90.7023 18.9345 90.8574 18.8909C90.9399 18.8667 91.0223 18.8497 91.1047 18.84C91.192 18.8255 91.2768 18.8182 91.3593 18.8182C91.5338 18.8182 91.6865 18.84 91.8174 18.8836C91.9532 18.9224 92.0793 18.9636 92.1956 19.0073L92.3193 19.0655L92.1011 19.9673C92.0332 19.9527 91.958 19.9333 91.8756 19.9091C91.7932 19.8848 91.7108 19.8655 91.6284 19.8509C91.5459 19.8364 91.4635 19.8291 91.3811 19.8291C91.3035 19.8242 91.2332 19.8315 91.1702 19.8509C91.1023 19.8752 91.0344 19.9091 90.9665 19.9527C90.9035 19.9964 90.8502 20.0473 90.8065 20.1055C90.7629 20.1588 90.7338 20.2218 90.7193 20.2945C90.7096 20.3236 90.7047 20.3527 90.7047 20.3818C90.7047 20.4303 90.7144 20.4788 90.7338 20.5273C90.7726 20.6533 90.8623 20.76 91.0029 20.8473C91.1484 20.9345 91.3496 20.9782 91.6065 20.9782C91.655 20.9782 91.7059 20.9758 91.7593 20.9709C91.8174 20.9661 91.8926 20.9539 91.9847 20.9345C92.0768 20.9103 92.1932 20.8788 92.3338 20.84C92.4793 20.7964 92.6635 20.7382 92.8865 20.6655L92.9447 21.6909L89.3302 22.8836ZM100.209 29.1091H99.9331C99.7343 29.1091 99.5452 29.097 99.3659 29.0727C99.1913 29.0485 99.0192 28.9806 98.8495 28.8691C98.7913 29.4945 98.6483 30.0618 98.4204 30.5709C98.1925 31.08 97.8871 31.5139 97.504 31.8727C97.1259 32.2364 96.6725 32.5176 96.144 32.7164C95.6155 32.9152 95.0216 33.0145 94.3622 33.0145H93.4531V31.2036H94.3622C94.8277 31.2036 95.2301 31.1552 95.5695 31.0582C95.9089 30.9612 96.1877 30.8061 96.4059 30.5927C96.624 30.3794 96.7865 30.1006 96.8931 29.7564C96.9998 29.417 97.0531 29.0024 97.0531 28.5127V24.0836H98.864V26.2582C98.864 26.4812 98.9101 26.6606 99.0022 26.7964C99.0992 26.9321 99.2083 27.0388 99.3295 27.1164C99.4555 27.1891 99.5768 27.2376 99.6931 27.2618C99.8095 27.2861 99.8895 27.2982 99.9331 27.2982H100.209V29.1091ZM96.624 21.1382L97.9331 19.8145L99.2713 21.1527L97.9477 22.4764L96.624 21.1382ZM109.961 26.2145C109.932 26.2339 109.806 26.3188 109.583 26.4691C109.359 26.6194 109.064 26.8036 108.695 27.0218C108.327 27.2352 107.895 27.463 107.401 27.7055C106.906 27.9479 106.373 28.1733 105.801 28.3818C105.229 28.5903 104.63 28.7648 104.004 28.9055C103.379 29.0412 102.751 29.1091 102.121 29.1091H99.917V27.2982H102.121C102.596 27.2982 103.102 27.2497 103.641 27.1527C104.179 27.0558 104.71 26.9321 105.233 26.7818C105.757 26.6267 106.254 26.4545 106.724 26.2655C107.199 26.0764 107.612 25.8897 107.961 25.7055C107.738 25.6376 107.495 25.5648 107.233 25.4873C106.976 25.4048 106.712 25.3248 106.441 25.2473C106.169 25.1648 105.9 25.0873 105.633 25.0145C105.367 24.937 105.117 24.8691 104.884 24.8109C104.652 24.7527 104.443 24.7067 104.259 24.6727C104.075 24.6388 103.929 24.6218 103.822 24.6218C103.711 24.6218 103.612 24.6364 103.524 24.6655C103.442 24.6897 103.367 24.7333 103.299 24.7964C103.231 24.8545 103.168 24.9321 103.11 25.0291C103.052 25.1261 102.991 25.2424 102.928 25.3782L101.263 24.8764C101.355 24.5855 101.466 24.3139 101.597 24.0618C101.733 23.8048 101.895 23.5818 102.084 23.3927C102.278 23.2036 102.501 23.0558 102.753 22.9491C103.006 22.8376 103.294 22.7818 103.619 22.7818C103.745 22.7818 103.924 22.8085 104.157 22.8618C104.39 22.9152 104.654 22.9855 104.95 23.0727C105.246 23.16 105.561 23.2594 105.895 23.3709C106.235 23.4824 106.574 23.5988 106.913 23.72C107.253 23.8412 107.583 23.96 107.903 24.0764C108.222 24.1927 108.511 24.2994 108.768 24.3964C109.025 24.4885 109.241 24.5661 109.415 24.6291C109.59 24.6921 109.701 24.7309 109.75 24.7455L109.961 26.2145ZM103.641 31.6036L104.95 30.28L106.288 31.6182L104.964 32.9418L103.641 31.6036Z" fill="white"/>
</svg>
