<svg width="60" height="57" viewBox="0 0 60 57" fill="none" xmlns="http://www.w3.org/2000/svg">
<path d="M20 52.3132C19.3 52.3132 18.575 52.1493 17.925 51.8211C16.5 51.118 15.625 49.7116 15.625 48.2116V44.8836C8.075 44.157 3.125 38.9536 3.125 31.5003V17.4377C3.125 9.3751 8.9 3.96094 17.5 3.96094H42.5C51.1 3.96094 56.875 9.3751 56.875 17.4377V31.5003C56.875 39.563 51.1 44.9771 42.5 44.9771H33.075L22.4249 51.6337C21.6999 52.079 20.85 52.3132 20 52.3132ZM17.5 7.45316C11.05 7.45316 6.875 11.3673 6.875 17.4143V31.4772C6.875 37.5242 11.05 41.4383 17.5 41.4383C18.525 41.4383 19.375 42.2352 19.375 43.1961V48.1884C19.375 48.4931 19.575 48.6337 19.7 48.704C19.825 48.7743 20.075 48.8446 20.35 48.6805L31.4751 41.743C31.7751 41.5555 32.15 41.4383 32.525 41.4383H42.525C48.975 41.4383 53.15 37.5242 53.15 31.4772V17.4143C53.15 11.3673 48.975 7.45316 42.525 7.45316H17.5Z" fill="white"/>
<path d="M29.9995 28.3834C28.9745 28.3834 28.1245 27.5865 28.1245 26.6256V26.1335C28.1245 23.4147 30.2495 22.0787 31.0495 21.5631C31.9745 20.9771 32.2745 20.5787 32.2745 19.9693C32.2745 18.7974 31.2495 17.8364 29.9995 17.8364C28.7495 17.8364 27.7246 18.7974 27.7246 19.9693C27.7246 20.9303 26.8746 21.7271 25.8496 21.7271C24.8246 21.7271 23.9746 20.9303 23.9746 19.9693C23.9746 16.8521 26.6745 14.3207 29.9995 14.3207C33.3245 14.3207 36.0245 16.8521 36.0245 19.9693C36.0245 22.6412 33.9246 23.9771 33.1496 24.4693C32.1746 25.0787 31.8745 25.4772 31.8745 26.1335V26.6256C31.8745 27.61 31.0245 28.3834 29.9995 28.3834Z" fill="white"/>
<path d="M30 34.2193C28.95 34.2193 28.125 33.4224 28.125 32.4615C28.125 31.5005 28.975 30.7036 30 30.7036C31.025 30.7036 31.875 31.5005 31.875 32.4615C31.875 33.4224 31.05 34.2193 30 34.2193Z" fill="white"/>
</svg>
