<svg width="48" height="48" viewBox="0 0 48 48" fill="none" xmlns="http://www.w3.org/2000/svg">
<g filter="url(#filter0_d_2619_9160)">
<rect x="4" y="4" width="40" height="40" rx="8" fill="#054363" shape-rendering="crispEdges"/>
<path fill-rule="evenodd" clip-rule="evenodd" d="M35.9379 21.5052C36.25 20.5798 36.3583 19.5978 36.2551 18.6267C36.152 17.6555 35.84 16.7182 35.3404 15.879C33.8192 13.2665 30.7629 11.9215 27.7779 12.554C27.1168 11.8219 26.3082 11.2382 25.4052 10.8412C24.5023 10.4441 23.5255 10.2427 22.5392 10.2502C19.4879 10.244 16.7804 12.1827 15.8417 15.0477C14.8768 15.2409 13.9639 15.637 13.1637 16.2098C12.3636 16.7826 11.6943 17.519 11.2004 18.3702C10.4539 19.638 10.1349 21.1123 10.2904 22.5754C10.4459 24.0384 11.0678 25.4127 12.0642 26.4952C11.7517 27.4207 11.6432 28.4029 11.7461 29.3742C11.849 30.3456 12.1609 31.2832 12.6604 32.1227C14.1817 34.7352 17.2379 36.079 20.2229 35.4477C20.8839 36.1796 21.6923 36.7631 22.595 37.16C23.4978 37.5569 24.4743 37.758 25.4604 37.7502C28.5142 37.7577 31.2229 35.8177 32.1617 32.9502C33.1273 32.7571 34.0407 32.3607 34.8414 31.7874C35.642 31.2142 36.3115 30.4771 36.8054 29.6252C37.5505 28.3575 37.8686 26.8838 37.7126 25.4216C37.5566 23.9594 36.9349 22.586 35.9392 21.504L35.9379 21.5052ZM25.4617 35.9527C24.2424 35.9556 23.0602 35.534 22.1179 34.7602C22.1604 34.7377 22.2342 34.6977 22.2829 34.6677L27.8329 31.5052C27.9715 31.4279 28.0867 31.3149 28.1667 31.1779C28.2468 31.041 28.2886 30.8851 28.2879 30.7265V23.0065L30.6342 24.3427C30.6592 24.3552 30.6754 24.379 30.6792 24.4052V30.799C30.6754 33.6415 28.3417 35.9465 25.4617 35.9527ZM14.2404 31.2252C13.6287 30.1847 13.408 28.9601 13.6179 27.7715C13.6579 27.7965 13.7304 27.8402 13.7817 27.869L19.3317 31.0315C19.6129 31.194 19.9617 31.194 20.2442 31.0315L27.0192 27.1715V29.844C27.0197 29.8577 27.017 29.8713 27.0111 29.8837C27.0052 29.8961 26.9964 29.9069 26.9854 29.9152L21.3754 33.1102C18.8767 34.5302 15.6854 33.6852 14.2417 31.2227L14.2404 31.2252ZM12.7792 19.2702C13.3933 18.2227 14.3554 17.4238 15.4979 17.0127L15.4954 17.2015V23.5265C15.4947 23.6853 15.5365 23.8414 15.6165 23.9785C15.6965 24.1157 15.8118 24.2289 15.9504 24.3065L22.7254 28.1652L20.3804 29.5027C20.3688 29.5101 20.3556 29.5146 20.3418 29.5157C20.3281 29.5168 20.3143 29.5145 20.3017 29.509L14.6904 26.3102C12.1967 24.8852 11.3417 21.7377 12.7779 19.2727L12.7792 19.2702ZM32.0504 23.6952L25.2754 19.8352L27.6204 18.5002C27.6319 18.4926 27.6451 18.4879 27.6589 18.4866C27.6726 18.4853 27.6865 18.4874 27.6992 18.4927L33.3104 21.689C35.8079 23.114 36.6642 26.2665 35.2217 28.7302C34.607 29.777 33.6458 30.5761 32.5042 30.989V24.4752C32.505 24.3167 32.4633 24.1609 32.3835 24.0239C32.3037 23.887 32.1887 23.7739 32.0504 23.6965V23.6952ZM34.3842 20.229C34.3296 20.1958 34.2746 20.1633 34.2192 20.1315L28.6692 16.969C28.5306 16.8892 28.3735 16.8473 28.2136 16.8473C28.0537 16.8473 27.8965 16.8892 27.7579 16.969L20.9829 20.829V18.1565C20.9824 18.1427 20.9852 18.1291 20.9911 18.1167C20.9969 18.1043 21.0057 18.0935 21.0167 18.0852L26.6254 14.8915C29.1254 13.4702 32.3192 14.3165 33.7592 16.7827C34.3679 17.824 34.5904 19.044 34.3842 20.229ZM19.7079 24.9915L17.3617 23.6565C17.3494 23.6505 17.3389 23.6415 17.331 23.6303C17.3232 23.6192 17.3182 23.6063 17.3167 23.5927V17.199C17.3179 14.3527 19.6579 12.0465 22.5429 12.049C23.7629 12.049 24.9429 12.4715 25.8817 13.2415C25.8392 13.264 25.7667 13.304 25.7179 13.3327L20.1679 16.4952C20.0292 16.5723 19.9137 16.6853 19.8334 16.8222C19.7532 16.9592 19.7111 17.1152 19.7117 17.274L19.7079 24.9902V24.9915ZM20.9829 22.2815L24.0004 20.5627L27.0179 22.2815V25.719L24.0004 27.4377L20.9817 25.719V22.2815H20.9829Z" fill="white"/>
</g>
<defs>
<filter id="filter0_d_2619_9160" x="0" y="0" width="48" height="48" filterUnits="userSpaceOnUse" color-interpolation-filters="sRGB">
<feFlood flood-opacity="0" result="BackgroundImageFix"/>
<feColorMatrix in="SourceAlpha" type="matrix" values="0 0 0 0 0 0 0 0 0 0 0 0 0 0 0 0 0 0 127 0" result="hardAlpha"/>
<feOffset/>
<feGaussianBlur stdDeviation="2"/>
<feComposite in2="hardAlpha" operator="out"/>
<feColorMatrix type="matrix" values="0 0 0 0 0.0196078 0 0 0 0 0.262745 0 0 0 0 0.388235 0 0 0 1 0"/>
<feBlend mode="normal" in2="BackgroundImageFix" result="effect1_dropShadow_2619_9160"/>
<feBlend mode="normal" in="SourceGraphic" in2="effect1_dropShadow_2619_9160" result="shape"/>
</filter>
</defs>
</svg>
