<svg width="42" height="41" viewBox="0 0 42 41" fill="none" xmlns="http://www.w3.org/2000/svg">
<path d="M28.245 5.05668L12.4425 10.1817C1.81996 13.6496 1.81996 19.3042 12.4425 22.755L17.1325 24.2754L18.69 28.8538C22.225 39.2233 28.035 39.2233 31.57 28.8538L36.8375 13.4446C39.1825 6.52585 35.3325 2.75043 28.245 5.05668ZM28.805 14.2475L22.155 20.7733C21.8925 21.0296 21.56 21.1492 21.2275 21.1492C20.895 21.1492 20.5625 21.0296 20.3 20.7733C19.7925 20.2779 19.7925 19.4579 20.3 18.9625L26.95 12.4367C27.4575 11.9413 28.2975 11.9413 28.805 12.4367C29.3125 12.9321 29.3125 13.7521 28.805 14.2475Z" fill="white"/>
</svg>
