<svg width="89" height="113" viewBox="0 0 89 113" fill="none" xmlns="http://www.w3.org/2000/svg">
<g clip-path="url(#clip0_285_349)">
<path d="M3.56093 2.82227C3.54516 10.5284 3.56093 18.2346 3.51097 25.9408C3.47415 31.8816 3.39789 37.8233 3.28218 43.7659C3.13239 50.5062 3.68324 57.2437 4.92579 63.8691C6.72455 73.2983 12.2891 79.6144 21.1567 83.0605C21.967 83.3265 22.7914 83.5471 23.6261 83.7212C23.8792 83.1259 24.1021 82.5182 24.294 81.9003C25.5774 76.9135 28.5227 72.9627 32.0072 69.3474C33.6218 67.6719 35.226 65.9832 36.8959 64.3633C38.9419 62.3759 41.0536 60.4573 43.1942 58.4541C42.2028 60.9911 41.2876 63.507 42.1765 66.3453C42.5315 59.5482 46.5919 55.4573 52.3931 52.1354C50.7548 54.5482 50.2236 56.8447 50.8836 59.4055C51.0799 59.0358 51.2452 58.6504 51.378 58.2533C52.43 54.0408 55.4174 51.6703 59.0543 49.7569C63.6564 47.3362 68.1823 44.7596 72.6713 42.1274C77.255 39.4398 81.9018 36.9503 87.164 35.8615C87.5032 35.7928 87.8451 35.7215 88.1922 35.6686C88.2606 35.6686 88.3421 35.7347 88.4999 35.8087C87.6873 38.5809 86.709 41.2738 85.0996 43.721C83.6164 45.9726 82.2437 48.3008 80.7605 50.555C80.1781 51.4326 79.5113 52.2504 78.7697 52.9969C76.8105 54.9922 74.8251 56.961 72.7923 58.8902C70.3808 61.1629 67.9351 63.4039 65.4289 65.5789C64.2376 66.6122 63.7117 68.0102 62.8964 69.2496C60.5007 72.886 58.9123 77.2597 54.7441 79.4796C53.5634 80.1112 52.1933 80.4125 51.0625 81.1181C49.7944 81.9611 48.659 82.9899 47.6937 84.1704C52.8218 84.6858 57.2924 83.3459 61.2371 80.0927C60.1794 81.7994 58.7383 83.2332 57.0294 84.2788C54.4785 85.8988 51.641 86.6282 48.6852 86.8079C45.845 86.9823 43.8201 88.1794 42.1265 90.5315C40.1978 93.1927 38.041 95.6793 35.681 97.9628C33.1537 100.421 29.7745 101.335 26.4163 102.077C24.415 102.521 22.3822 102.833 20.3678 103.148C17.5066 103.594 16.9491 102.942 17.8537 100.241C18.0852 99.5537 18.4165 98.9009 18.8267 97.9311C16.9307 99.7281 15.2318 101.301 13.5672 102.921C11.3713 105.066 9.21758 107.257 7.03487 109.419C5.27555 111.158 3.12703 112.21 0.494629 113C0.699027 112.679 0.922061 112.37 1.16258 112.075C6.30817 106.726 11.4546 101.377 16.602 96.0283C17.291 95.3068 17.8616 94.4744 18.7058 93.4305C17.3909 92.5848 16.339 91.6097 15.0741 91.1419C6.89812 88.0949 2.84038 81.8131 1.78584 73.5282C1.04687 67.7142 1.01268 61.7972 0.665554 55.9277L1.14944 55.822L1.81739 56.7998C2.06459 54.6301 2.45117 52.6983 2.4801 50.7638C2.70363 35.666 2.8509 20.5708 3.05602 5.47556C3.05602 4.59553 3.39789 3.72079 3.58198 2.83284L3.56093 2.82227ZM61.763 68.1767L51.6936 79.0356C56.5876 79.144 61.3107 72.9574 61.763 68.1767Z" fill="white"/>
<path d="M3.58189 2.84604C3.84486 1.78895 4.68375 1.72288 5.54369 1.72288C8.9168 1.72288 12.2908 1.72288 15.6657 1.72288C26.6178 1.73345 37.5699 1.74667 48.522 1.76252C49.858 1.76252 51.1912 1.91316 52.5982 2.00037C52.5561 1.55639 52.5035 0.967064 52.4141 -0.0107422C56.0826 4.21761 59.5855 8.1209 64.4006 11.0887H62.7202C62.1732 22.6083 62.6413 34.0433 62.2599 45.4757C62.1679 43.8505 61.997 42.2278 61.997 40.5999C61.9575 32.7643 61.9707 24.9286 61.9444 17.0797C61.9444 14.7013 61.521 14.437 59.191 14.8889C57.7281 15.1506 56.2478 15.3017 54.7625 15.3408C53.4923 15.3884 52.0512 13.9349 51.9697 12.6479C51.825 10.3276 51.7067 8.00727 51.5857 5.68432C51.4963 3.83441 51.2517 3.52522 49.382 3.20809C48.734 3.10491 48.0788 3.05453 47.4228 3.05745C33.8461 2.9817 20.2678 2.91034 6.68764 2.84339C5.63574 2.84339 4.60487 2.81432 3.56348 2.80111L3.58189 2.84604Z" fill="white"/>
<path d="M33.4012 34.4952C27.7472 34.4952 22.0941 34.4952 16.4418 34.4952C15.8764 34.4952 15.2321 34.5824 14.764 34.3472C14.2959 34.112 13.6359 33.4329 13.7121 33.1237C13.9332 32.4653 14.3686 31.9011 14.9481 31.5222C15.3136 31.2738 15.9684 31.4482 16.4944 31.4482C28.281 31.4658 40.0677 31.4861 51.8543 31.509C52.6117 31.509 53.7714 31.2949 53.6662 32.3837C53.5978 33.0999 52.709 33.8398 52.0226 34.3472C51.6387 34.63 50.9207 34.4873 50.3527 34.4873C44.7004 34.4873 39.0482 34.4873 33.3959 34.4873L33.4012 34.4952Z" fill="white"/>
<path d="M33.5272 20.0055H16.1891C15.8393 20.0055 15.4449 20.0927 15.1372 19.9632C14.6375 19.7465 13.8617 19.4479 13.7986 19.0806C13.5909 17.8623 14.2247 17.0959 15.2503 17.088C18.0957 17.0695 20.9411 17.088 23.7865 17.088L51.8935 17.0695C52.6824 17.0695 53.5792 16.9188 53.7659 18.0182C53.9132 18.885 52.7876 20.0002 51.7725 20.0029C45.6872 20.017 39.6019 20.017 33.5167 20.0029L33.5272 20.0055Z" fill="white"/>
<path d="M33.8877 38.6843C39.8889 38.6843 45.8926 38.6631 51.8937 38.7134C52.496 38.7134 53.0929 39.152 53.6951 39.3846C53.277 40.0506 52.9194 40.7694 52.4118 41.3587C52.2067 41.5966 51.6781 41.623 51.2968 41.623C39.3366 41.623 27.3773 41.6186 15.4188 41.6098C14.0172 41.6098 13.7568 41.1658 13.9199 39.7995C14.0514 38.6764 14.7824 38.6552 15.6213 38.6579C21.7084 38.6579 27.7972 38.6579 33.8877 38.6579V38.6843Z" fill="white"/>
<path d="M33.8062 45.843C39.8073 45.843 45.8085 45.843 51.8096 45.843C52.5749 45.843 53.7294 45.6607 53.6347 46.7204C53.5689 47.4181 52.6327 48.0973 51.97 48.6496C51.7071 48.8769 51.1259 48.7685 50.6893 48.7685C39.213 48.7685 27.7358 48.7685 16.2578 48.7685C15.9063 48.7704 15.555 48.751 15.2059 48.7104C14.3144 48.5994 13.82 48.2902 13.9225 47.175C14.0198 46.1179 14.4485 45.8245 15.4031 45.8272C21.5357 45.843 27.6683 45.8272 33.8115 45.8272L33.8062 45.843Z" fill="white"/>
<path d="M29.0749 52.9841C33.4947 52.9841 37.9153 52.9841 42.3368 52.9841C43.0127 52.9841 44.0436 52.8493 43.9515 53.7769C43.8858 54.4296 43.0942 55.0744 42.4999 55.5713C42.2369 55.7959 41.6557 55.677 41.2192 55.677C33.2545 55.6664 25.2889 55.6497 17.3225 55.6268C16.5835 55.6268 15.763 55.6611 15.1319 55.3625C14.6243 55.1247 14.3429 54.4032 13.959 53.8958C14.4008 53.5919 14.84 53.029 15.2739 53.0211C19.8681 52.9576 24.4781 52.9814 29.0618 52.9814L29.0749 52.9841Z" fill="white"/>
<path d="M41.0403 24.4031C44.6764 24.4031 48.3116 24.4031 51.946 24.4031C52.6928 24.4031 53.7395 24.3423 53.6237 25.3254C53.537 26.031 52.7454 26.7128 52.1379 27.2599C51.875 27.4898 51.2964 27.3682 50.8599 27.3709H30.1004C29.9243 27.3709 29.7481 27.3709 29.5745 27.3709C28.7856 27.3101 27.8915 27.3418 27.8415 26.2186C27.7915 25.0955 28.4595 24.4454 29.6113 24.4348C31.9781 24.4136 34.3449 24.4189 36.7117 24.4163H41.0456L41.0403 24.4031Z" fill="white"/>
<path d="M25.1385 60.3492C28.2022 60.3492 31.2633 60.3492 34.3269 60.3492C34.987 60.3492 36.0363 60.1298 35.9653 61.0918C35.9127 61.7524 35.0975 62.3788 34.5636 62.9628C34.4269 63.1134 34.0613 63.0844 33.8036 63.0791C28.7334 62.9866 23.6606 62.9126 18.593 62.7646C17.4367 62.7127 16.29 62.5301 15.1743 62.2202C14.7352 62.1066 14.4117 61.5516 14.0356 61.2001C14.4564 60.9358 14.8745 60.4284 15.3006 60.4073C18.5799 60.3412 21.875 60.3703 25.1412 60.3703L25.1385 60.3492Z" fill="white"/>
<path d="M19.6554 69.6517C18.2564 69.6517 16.8521 69.731 15.4662 69.6094C14.9902 69.5698 14.5563 69.0333 14.104 68.7267C14.5458 68.4281 14.9797 67.8916 15.432 67.8758C18.3108 67.7771 21.1921 67.7577 24.0761 67.8176C24.5205 67.8176 24.9544 68.3805 25.391 68.6818C24.9623 69.028 24.5573 69.6305 24.1024 69.6702C22.6297 69.797 21.136 69.7178 19.6528 69.7178L19.6554 69.6517Z" fill="white"/>
<path d="M21.2068 27.6269C19.366 27.3627 18.8768 26.8341 19.3028 25.341C19.4106 24.9604 19.9287 24.5482 20.3363 24.4425C20.9316 24.3116 21.5471 24.3035 22.1456 24.4187C22.619 24.49 23.2843 24.6459 23.4605 24.9763C23.6367 25.3066 23.4211 26.0334 23.1213 26.3426C22.5795 26.8738 21.8537 27.2094 21.2068 27.6269Z" fill="white"/>
</g>
<defs>
<clipPath id="clip0_285_349">
<rect width="88" height="113" fill="white" transform="translate(0.5)"/>
</clipPath>
</defs>
</svg>
