<svg width="144" height="113" viewBox="0 0 144 113" fill="none" xmlns="http://www.w3.org/2000/svg">
<g clip-path="url(#clip0_285_372)">
<path d="M72.704 84.8145C72.6577 84.9965 72.6293 85.0452 72.6422 85.0708C74.0198 87.6107 74.061 87.685 71.5221 89.1408C70.3376 89.82 69.8664 90.5069 70.5179 91.7577C70.5564 91.8377 70.5767 91.9252 70.5771 92.014C70.6338 93.8875 70.8887 95.6201 73.2937 95.8584C73.4225 95.8838 73.5367 95.9571 73.613 96.0635C74.643 97.6269 73.5074 99.0596 73.2911 100.538C73.1546 101.474 72.3152 101.205 71.7178 101.102C70.4767 100.89 69.8175 101.359 69.1969 102.479C68.4455 103.814 67.4899 105.024 66.3644 106.067C65.5508 106.818 65.3834 107.407 65.9859 108.215C66.7584 109.265 66.4649 110.009 65.4529 110.644C65.2366 110.78 65.0332 110.939 64.8195 111.085C62.6024 112.587 62.6385 112.556 60.9776 110.552C60.6454 110.15 59.9193 109.934 59.3554 109.896C58.467 109.832 57.5529 110.111 56.6697 110.027C55.2818 109.893 54.5659 110.496 54.3084 111.767C54.0767 112.895 53.5051 113.305 52.4004 112.774C52.199 112.7 51.9913 112.644 51.7798 112.608C49.4495 112.005 49.5113 112.01 49.6632 109.673C49.6993 109.14 49.2486 108.448 48.8212 108.04C47.8556 107.137 46.8226 106.308 45.7312 105.559C45.5375 105.449 45.3215 105.382 45.0988 105.365C44.8761 105.348 44.6524 105.38 44.4437 105.459C42.1829 106.651 42.4996 106.313 41.292 104.542C41.122 104.286 41.001 104.014 40.813 103.773C40.0071 102.786 40.159 101.892 41.2405 101.333C42.6001 100.628 42.8807 99.6286 42.4507 98.2805C42.3759 98.0789 42.3418 97.8647 42.3503 97.65C42.5666 95.7303 42.0696 94.3386 39.8732 93.9926C39.6157 93.9516 39.196 93.2416 39.2655 92.9315C39.6251 91.3162 40.0721 89.7214 40.6045 88.1541C40.6869 87.8978 41.3306 87.7389 41.7168 87.7337C42.1726 87.7337 42.6464 88.09 43.079 88.0336C43.6101 87.9772 44.1077 87.7484 44.4952 87.3826C45.175 86.6291 45.6437 85.6885 46.3157 84.9247C46.8539 84.3121 46.8925 83.7995 46.5732 83.0793C45.7183 81.1391 45.9861 80.4087 47.8066 79.3117C49.9181 78.0302 49.9748 78.002 51.3112 80.1216C51.942 81.1212 52.5755 81.416 53.7291 81.0905C54.6475 80.8784 55.5929 80.8058 56.5332 80.8752C57.5478 80.911 58.0962 80.5625 58.4129 79.5655C58.6395 78.8453 59.1854 77.6483 59.5588 77.6535C60.7072 77.6714 61.8763 78.1071 62.9681 78.5454C63.2024 78.6402 63.3131 79.4758 63.205 79.8987C62.8419 81.3262 63.1071 82.313 64.5439 83.0383C65.3499 83.4458 65.9241 84.2993 66.6322 84.917C66.9052 85.1528 67.3687 85.5219 67.5618 85.4296C68.7622 84.8728 69.9274 84.2437 71.0509 83.5458C71.1693 83.4715 71.0638 82.7513 70.8552 82.4975C70.3119 81.8414 70.4432 81.4441 71.0535 80.9059C73.8061 78.4685 73.7649 78.4608 72.4852 75.1366C72.065 73.9725 71.7083 72.7867 71.4165 71.5843C71.2208 70.8513 70.8269 70.5027 70.0544 70.5181C68.984 70.5767 67.9108 70.557 66.8434 70.4591C66.4623 70.4079 65.8701 69.8491 65.8495 69.4955C65.749 67.7501 65.7851 65.997 65.8108 64.2464C65.8289 63.1572 66.4056 62.6676 67.5258 62.6497C68.7514 62.6317 70.2784 62.8804 71.1153 62.2627C71.9006 61.6834 71.9341 60.1174 72.3358 59C72.7375 57.8825 73.2705 56.7855 73.5744 55.6373C73.6639 55.0899 73.5385 54.5293 73.2242 54.0713C72.65 53.2332 71.8234 52.5669 71.2672 51.7185C71.0251 51.3469 70.9608 50.4857 71.2131 50.2243C72.7581 48.5942 74.4396 47.0744 76.1725 45.4212C77.3827 46.6797 78.49 47.7946 79.556 48.9582C80.0144 49.4708 80.3285 49.4836 80.9697 49.1529C82.8185 48.1816 84.7085 47.2691 86.6346 46.4746C87.6311 46.0645 88.1538 45.5955 88.1796 44.4473C88.2465 40.5848 88.2852 40.5848 92.091 40.5771H92.4772C95.7448 40.5771 95.7448 40.5771 95.8247 43.909C95.871 45.9594 95.9199 45.8134 97.7765 46.472C99.7722 47.2225 101.715 48.1062 103.591 49.1171C104.456 49.5656 105.002 49.604 105.715 48.8813C106.794 47.7869 107.994 46.8155 109.32 45.6391C110.538 46.8488 111.977 48.2251 113.324 49.6835C113.507 49.8834 113.365 50.6087 113.136 50.9112C112.413 51.8595 111.591 52.7283 110.783 53.6177C110.25 54.2072 110.126 54.7249 110.502 55.5502C111.356 57.4579 112.111 59.4084 112.763 61.3938C113.054 62.2627 113.45 62.6984 114.388 62.6471C115.245 62.601 116.105 62.6728 116.963 62.6317C117.864 62.5933 118.32 62.888 118.294 63.8722C118.255 65.451 118.314 67.0324 118.294 68.6112C118.271 69.9312 117.756 70.4053 116.394 70.5181C115.34 70.6027 114.032 70.372 113.304 70.9102C112.632 71.4228 112.629 72.7607 112.258 73.709C111.836 74.7778 111.362 75.8337 110.847 76.8615C110.474 77.6073 110.474 78.2096 111.105 78.8145C111.787 79.4604 112.392 80.196 113.059 80.8649C113.654 81.4441 113.77 82.0054 113.177 82.6385C111.751 84.1541 110.321 85.6808 108.887 87.2186C108.372 87.7773 107.891 87.7312 107.343 87.2186C106.621 86.4897 105.84 85.8218 105.007 85.222C104.784 85.1112 104.54 85.0491 104.291 85.0398C104.041 85.0305 103.793 85.0743 103.562 85.1682C101.384 86.1319 99.2314 87.1571 97.1044 88.2438C96.6667 88.4668 96.3834 89.0306 96.1028 89.4817C95.9818 89.6765 96.0564 89.9943 96.0281 90.2506C95.7423 92.7982 95.3663 93.1263 92.8171 93.1801C91.7047 93.2032 90.5923 93.2852 89.4697 93.3441C88.6251 93.3877 88.1822 93.0109 88.1822 92.1498C88.1771 92.1072 88.1771 92.0642 88.1822 92.0216C88.6972 89.3561 87.3942 88.1771 84.9119 87.4723C83.2305 86.993 81.7241 85.8525 80.192 84.9093C79.4582 84.4608 78.8711 84.4172 78.2119 84.9606C77.684 85.3937 77.1201 85.7859 76.5742 86.2011C75.3073 87.1648 75.0292 87.1391 73.8885 85.9678C73.528 85.5859 73.1521 85.2451 72.704 84.8145ZM92.0858 83.3741C93.6437 83.1178 95.2453 83.0204 96.7542 82.6052C102.306 81.0366 106.266 77.6022 107.814 72.0123C110.018 64.067 105.267 55.422 97.4392 52.6155C90.891 50.2678 82.9267 52.7565 78.8067 58.3541C76.2961 61.7629 74.849 65.4203 75.6215 69.7184C77.0325 77.5484 83.8717 83.1614 92.0858 83.3741ZM56.6594 105.236C62.6204 105.618 67.361 98.9648 66.5962 94.2694C65.901 89.9789 63.7431 87.0725 59.5434 85.9243C55.4414 84.8017 51.8339 85.9243 49.2126 89.2562C47.4101 91.5475 45.9836 94.1438 46.5707 97.2706C47.4693 102.04 51.5764 105.247 56.6594 105.236Z" fill="white"/>
<path d="M0.00022413 39.8213C-0.0641501 20.6424 13.7454 4.01368 32.5504 0.627959C52.5425 -2.96024 72.053 9.19093 77.5737 28.7235C78.1068 30.6073 78.457 32.5475 78.8226 34.4749C79.0543 35.6949 77.2905 37.4634 76.0828 37.1968C75.8125 37.1353 75.5421 36.5048 75.4932 36.1101C75.0606 32.5219 74.2237 29.0337 72.7199 25.7505C66.7975 12.8227 56.804 5.36438 42.531 3.96498C24.6066 2.2042 6.07715 15.1345 3.80345 35.7718C1.78468 54.11 13.4493 68.9446 29.3909 73.3351C32.535 74.1988 35.8901 74.3218 39.1578 74.6986C40.5457 74.86 40.6255 74.9164 40.7028 76.9873C40.7388 78.1022 40.2882 78.5251 39.199 78.5123C32.0509 78.4764 25.3353 76.8464 19.1915 73.1454C11.3636 68.4321 5.66258 61.9297 2.39495 53.3873C0.909188 49.5069 0.0182489 44.6731 0.00022413 39.8213Z" fill="white"/>
<path d="M143.964 89.6407C144.111 91.117 143.866 91.9346 142.71 92.5113C142.236 92.7497 142.131 93.7262 141.87 94.372C141.397 95.5331 141.222 96.6147 142.679 97.2375C142.754 97.2708 142.875 97.3733 142.864 97.3989C142.447 98.4241 142.092 99.475 141.546 100.428C141.397 100.685 140.598 100.882 140.297 100.723C139.473 100.29 138.979 100.516 138.41 101.136C136.952 102.73 135.085 103.699 133.002 104.211C131.988 104.468 131.393 104.934 131.385 106.005C131.385 107.254 130.651 107.543 129.524 107.505C128.494 107.456 127.397 107.659 127.404 106.072C127.404 105.085 126.846 104.534 125.872 104.316C123.599 103.804 121.729 102.543 119.929 101.12C119.702 100.971 119.443 100.875 119.172 100.841C118.901 100.807 118.627 100.835 118.369 100.923C117.274 101.469 116.695 101.136 116.25 100.129C115.959 99.4647 115.603 98.8291 115.256 98.1909C114.741 97.2554 114.885 96.525 115.943 96.1559C116.731 95.8816 116.875 95.387 116.667 94.6616C116.358 93.5724 116.296 92.4062 114.893 91.9423C114.159 91.7014 113.904 89.6151 114.269 88.3541C114.54 87.4314 115.274 87.2213 116.072 87.2648C117.012 87.3187 117.359 86.8522 117.738 86.0551C118.461 84.5532 118.724 83.2563 117.859 81.6365C116.942 79.9244 118.299 77.6254 120.22 77.4204C120.753 77.3614 121.472 77.9099 121.92 78.361C122.97 79.4221 124.021 79.3862 125.293 78.7993C126.109 78.4174 126.547 77.9663 126.454 77.0641C126.3 75.5545 127.294 75.3443 128.463 75.2367C129.632 75.1291 130.505 75.3546 130.584 76.754C130.633 77.6229 131.135 78.1457 131.967 78.3943C132.5 78.5558 133.01 78.8813 133.546 78.9197C134.158 78.9633 134.789 78.7762 135.407 78.6788C135.482 78.666 135.539 78.5737 135.606 78.5199C137.766 76.8027 137.743 76.8309 139.911 78.5199C140.632 79.0812 140.825 79.7373 140.367 80.396C139.025 82.3208 139.383 84.0867 140.367 86.0654C140.9 87.1393 141.242 87.7826 142.54 87.4981C143.444 87.2982 143.902 87.8236 143.943 88.7052C143.979 89.1538 143.964 89.5818 143.964 89.6407ZM129.176 83.3435C124.07 83.3101 119.88 87.1059 119.826 91.8167C119.77 96.7044 124.33 100.787 129.827 100.762C134.625 100.741 138.296 96.9991 138.309 92.1166C138.322 87.4929 134.04 83.3742 129.176 83.3435Z" fill="white"/>
<path d="M27.9176 36.023C29.4806 37.4019 30.9741 38.6731 32.4083 40.0085C33.1808 40.7363 33.7782 40.7261 34.5868 39.9905C39.4663 35.5642 44.4025 31.1994 49.2795 26.7706C49.9902 26.1273 50.5336 25.9248 51.391 26.4758C52.2485 27.0269 53.1935 27.4062 54.3007 27.9675C53.5282 28.9209 52.9231 29.7975 52.1867 30.5305C46.3672 36.3844 40.5307 42.2246 34.6769 48.0511C33.6469 49.0763 33.3894 49.0763 32.4006 48.0024C30.266 45.665 28.1313 43.3301 26.0198 40.9721C24.8688 39.6906 24.9564 38.5937 26.2361 37.4737L27.9176 36.023Z" fill="white"/>
<path d="M114.81 38.4065C114.89 37.5197 115.003 36.8815 115.935 36.3894C116.867 35.8973 116.656 34.8823 116.113 34.1724C115.526 33.4035 115.977 32.8909 116.342 32.3424C116.708 31.7939 116.991 31.0609 118.006 31.2967C118.933 31.5146 121.474 29.9947 121.894 29.131C122.236 28.4313 124.469 28.0673 124.793 28.7158C125.676 30.4458 127.435 30.5688 128.965 30.9404C130.188 31.2352 130.687 31.7247 130.523 32.978C130.404 33.8546 130.34 34.8311 131.583 35.2463C132.649 35.6051 132.788 38.2476 131.825 39.0344C130.718 39.9391 130.118 40.9566 130.692 42.4406C130.95 43.1352 130.105 43.963 129.256 44.1835C127.693 44.5884 125.985 44.6961 124.991 46.3389C124.546 47.0745 122.602 46.7157 122.056 46.0083C121.675 45.5457 121.197 45.1721 120.655 44.9139C119.571 44.3782 118.397 44.0194 117.346 43.4325C116.996 43.2377 116.831 42.5893 116.723 42.1177C116.528 41.1514 116.466 40.2006 115.328 39.7264C115.024 39.6008 114.975 38.8627 114.81 38.4065ZM123.516 42.3842C126.516 42.4022 128.96 40.4953 128.988 38.1092C129.019 35.3309 126.475 32.6833 123.727 32.6397C120.895 32.5936 118.23 35.0105 118.219 37.6478C118.206 40.3697 120.439 42.3663 123.516 42.3842Z" fill="white"/>
</g>
<defs>
<clipPath id="clip0_285_372">
<rect width="144" height="113" fill="white"/>
</clipPath>
</defs>
</svg>
