<svg width="86" height="113" viewBox="0 0 86 113" fill="none" xmlns="http://www.w3.org/2000/svg">
<g clip-path="url(#clip0_285_364)">
<path d="M81.3543 105.885V103.799C81.3543 82.7428 81.3982 61.6867 81.3543 40.6305C81.3575 31.1216 77.6297 21.9876 70.9658 15.176C64.3018 8.36444 55.2289 4.41423 45.6816 4.16765C40.7988 3.99086 35.9304 4.79879 31.3692 6.54289C26.8079 8.28699 22.6479 10.9312 19.1391 14.3167C15.6304 17.7022 12.8453 21.7591 10.9512 26.2435C9.0572 30.7279 8.09332 35.5473 8.11753 40.412C8.11753 48.8875 8.10157 57.3629 8.06964 65.8383C8.11865 66.2956 8.03996 66.7576 7.84221 67.1732C5.91892 69.986 6.01867 73.1802 5.99473 76.3584C5.99473 78.9408 6.08251 81.5232 5.89497 84.1015C5.81517 85.1702 5.12486 86.1992 4.6979 87.2481L3.97168 87.0534C3.93177 86.5727 3.85596 86.092 3.85596 85.6073C3.85596 70.5766 3.85596 55.5486 3.85596 40.5233C3.89985 16.4954 24.0505 -1.88698 48.0678 0.163013C69.4474 1.99053 85.3964 19.1016 85.4563 40.424C85.5201 61.6748 85.4563 82.9335 85.4563 104.18C85.4954 105.109 85.4513 106.04 85.3246 106.961C85.0054 108.717 83.936 109.782 82.0885 109.913C81.2905 109.969 80.4924 109.945 79.6944 109.945H29.8164C29.4174 109.945 29.0463 109.909 28.6194 109.885C29.8883 106.898 31.3607 105.913 34.3892 105.913H79.0799L81.3543 105.885Z" fill="white"/>
<path d="M19.9083 70.3952C23.0486 66.9905 26.0333 63.7089 29.0859 60.4869C29.9797 59.5119 30.9871 58.6464 32.0865 57.9085C32.8855 57.3473 33.8363 57.0398 34.8141 57.0263C35.7918 57.0129 36.7508 57.2941 37.5651 57.833C39.2849 58.9415 40.8172 59.9625 43.0756 59.8195C44.7435 59.7122 45.5815 61.2616 46.188 62.7594C46.4313 63.3877 46.8871 63.9117 47.4769 64.2413C50.7848 65.7351 51.8861 69.2391 49.871 72.3221C49.3004 73.2041 48.6141 74.0145 47.9956 74.8409C50.5733 79.6083 50.3618 81.5947 46.6908 85.7066C42.3654 90.5575 38.0639 95.4362 33.5789 100.136C32.3818 101.403 30.5064 102.055 28.9701 103.032C27.9367 103.684 26.7835 104.252 25.9695 105.126C23.9464 107.311 22.087 109.651 20.1557 111.924C19.3577 112.869 18.4638 113.513 17.2987 112.456C16.2253 111.471 16.2373 110.414 17.183 109.321C19.4335 106.707 21.5722 104.006 23.9664 101.507C24.8762 100.545 26.2688 100.049 27.4339 99.3216C28.9143 98.392 30.6261 97.6888 31.8232 96.4572C36.0648 91.9838 40.1189 87.3196 44.2248 82.7349C44.7954 82.0953 45.4658 81.4358 45.7291 80.6651C45.9446 80.0413 45.6254 79.2309 45.5416 78.4999C44.9271 78.6786 44.129 78.6707 43.73 79.064C42.1698 80.5936 40.7413 82.2423 39.249 83.8553C38.5148 84.6498 37.6888 85.6033 36.5636 84.6697C35.4383 83.7361 35.9052 82.5681 36.6873 81.6702C39.4804 78.4681 42.3175 75.3136 45.1426 72.1353C45.5416 71.6864 46.1202 71.305 46.2957 70.7885C46.5103 69.9328 46.6439 69.0589 46.6948 68.1784C45.8967 68.3969 44.8593 68.3651 44.3645 68.8697C41.675 71.6149 39.1253 74.4952 36.5197 77.3239C36.0688 77.8126 35.6817 78.4601 35.1191 78.7065C34.4926 78.9846 33.4352 79.2031 33.0522 78.8773C32.6691 78.5515 32.5055 77.459 32.6531 76.7995C32.8008 76.14 33.4272 75.6076 33.9061 75.0475C36.5316 72.0599 39.1811 69.0882 41.8067 66.1045C42.4771 65.3418 43.2193 64.4677 42.2057 63.5301C41.1124 62.521 40.4221 63.5301 39.7557 64.2492C36.7431 67.4275 33.7704 70.6455 30.7059 73.7602C30.1991 74.2767 29.2295 74.5032 28.4594 74.531C28.1202 74.531 27.4139 73.6649 27.4698 73.2795C27.5929 72.4556 27.9423 71.6815 28.4793 71.0428C30.6261 68.6074 32.8965 66.2754 35.0672 63.8599C35.7456 63.1011 37.182 62.3105 35.8653 61.1186C34.7679 60.1214 33.7864 60.9994 32.9763 61.8735L20.6625 75.1428C20.2808 75.6 19.8703 76.0326 19.4335 76.438C17.9252 77.6894 16.4089 77.1213 16.1655 75.1825C16.0258 74.0701 16.2134 72.9021 15.958 71.8294C15.8143 71.2017 15.0323 70.2403 14.6372 70.2681C13.9629 70.3436 12.9893 70.9951 12.8177 71.599C12.4665 72.8425 12.4945 74.2092 12.4825 75.5282C12.4466 78.9726 12.4186 82.4171 12.5024 85.8576C12.5454 87.0479 12.3494 88.2348 11.926 89.3488C11.5026 90.4628 10.8602 91.4815 10.0365 92.3453C8.11318 94.4549 6.25772 96.6201 4.3464 98.7336C3.49648 99.6712 2.59468 100.422 1.33376 99.2064C0.156644 98.0781 0.304289 97.1127 1.37766 95.9963C3.26105 94.0337 5.00079 91.9361 6.90015 89.9933C8.3486 88.5154 8.89527 86.8667 8.84738 84.8048C8.74364 80.6359 8.75427 76.4658 8.8793 72.2943C8.99103 68.4406 11.9837 66.0132 15.6627 66.5853C17.4902 66.8832 18.2803 67.5665 19.9083 70.3952Z" fill="white"/>
<path d="M31.2846 54.0666L28.5234 55.9736C28.2231 55.3256 27.9567 54.6626 27.7253 53.9872C25.3871 45.8428 30.4706 36.8761 38.7903 34.4367C47.2456 31.9577 56.2914 36.5344 58.8771 44.5993C61.3311 52.2431 58.2666 60.3954 51.6348 63.669C51.3019 63.8276 50.9395 63.9155 50.5706 63.9271C50.2017 63.9387 49.8344 63.8738 49.4921 63.7366C48.0077 62.9102 48.0436 61.8296 49.4921 60.9317C52.0418 59.3624 54.1128 57.4118 55.266 54.5751C56.2305 52.1988 56.4462 49.5866 55.8847 47.0854C55.3231 44.5841 54.0106 42.312 52.1216 40.5708C50.2002 38.8679 47.8119 37.7748 45.2627 37.4315C42.7135 37.0882 40.1194 37.5104 37.8127 38.644C35.5082 39.7886 33.6101 41.6071 32.3728 43.8559C31.1354 46.1047 30.6179 48.6762 30.8896 51.226C30.9973 52.1279 31.141 53.0376 31.2846 54.0666Z" fill="white"/>
<path d="M45.5619 50.1255V59.1439C45.2147 59.2631 45.087 59.3584 44.9873 59.3346C41.6315 58.4725 41.6395 58.4685 41.6874 54.9645C41.7113 53.4707 41.6874 51.9769 41.6874 50.1335C41.245 50.4361 40.8225 50.7665 40.4225 51.1227C39.6244 51.961 38.8264 51.9689 38.0283 51.1466C37.2303 50.3242 36.7514 49.3786 37.765 48.3973C39.6643 46.5619 41.5996 44.7701 43.7982 42.6963C45.6696 44.5913 47.7605 46.5658 49.6359 48.735C49.9591 49.1045 49.5162 50.3838 49.0972 51.0353C48.8937 51.3492 47.9002 51.2896 47.3096 51.1744C46.8427 51.0949 46.4317 50.6698 45.5619 50.1255Z" fill="white"/>
</g>
<defs>
<clipPath id="clip0_285_364">
<rect width="85" height="113" fill="white" transform="translate(0.5)"/>
</clipPath>
</defs>
</svg>
