<svg width="28" height="28" viewBox="0 0 28 28" fill="none" xmlns="http://www.w3.org/2000/svg">
<path d="M21.0002 27.2H7.00019C4.72519 27.2 2.65019 25.45 2.27519 23.2125L0.612695 13.25C0.337695 11.7 1.10019 9.71252 2.33769 8.72502L11.0002 1.78752C12.6752 0.437522 15.3127 0.450022 17.0002 1.80002L25.6627 8.72502C26.8877 9.71252 27.6377 11.7 27.3877 13.25L25.7252 23.2C25.3502 25.4125 23.2252 27.2 21.0002 27.2ZM13.9877 2.66252C13.3252 2.66252 12.6627 2.86252 12.1752 3.25002L3.51269 10.2C2.81269 10.7625 2.31269 12.0625 2.46269 12.95L4.12519 22.9C4.35019 24.2125 5.66269 25.325 7.00019 25.325H21.0002C22.3377 25.325 23.6502 24.2125 23.8752 22.8875L25.5377 12.9375C25.6752 12.0625 25.1752 10.7375 24.4877 10.1875L15.8252 3.26252C15.3252 2.86252 14.6502 2.66252 13.9877 2.66252Z" fill="white"/>
</svg>
