<svg width="30" height="30" viewBox="0 0 30 30" fill="none" xmlns="http://www.w3.org/2000/svg">
<path d="M11.25 13.4375C9.35 13.4375 7.8125 11.9 7.8125 10C7.8125 8.1 9.35 6.5625 11.25 6.5625C13.15 6.5625 14.6875 8.1 14.6875 10C14.6875 11.9 13.15 13.4375 11.25 13.4375ZM11.25 8.4375C10.3875 8.4375 9.6875 9.1375 9.6875 10C9.6875 10.8625 10.3875 11.5625 11.25 11.5625C12.1125 11.5625 12.8125 10.8625 12.8125 10C12.8125 9.1375 12.1125 8.4375 11.25 8.4375Z" fill="white"/>
<path d="M18.75 28.4375H11.25C4.4625 28.4375 1.5625 25.5375 1.5625 18.75V11.25C1.5625 4.4625 4.4625 1.5625 11.25 1.5625H16.25C16.7625 1.5625 17.1875 1.9875 17.1875 2.5C17.1875 3.0125 16.7625 3.4375 16.25 3.4375H11.25C5.4875 3.4375 3.4375 5.4875 3.4375 11.25V18.75C3.4375 24.5125 5.4875 26.5625 11.25 26.5625H18.75C24.5125 26.5625 26.5625 24.5125 26.5625 18.75V12.5C26.5625 11.9875 26.9875 11.5625 27.5 11.5625C28.0125 11.5625 28.4375 11.9875 28.4375 12.5V18.75C28.4375 25.5375 25.5375 28.4375 18.75 28.4375Z" fill="white"/>
<path d="M19.5876 12.1873C19.1001 12.1873 18.6501 12.0123 18.3251 11.6748C17.9376 11.2873 17.7501 10.7123 17.8376 10.1248L18.0876 8.3873C18.1501 7.9498 18.4126 7.4123 18.7376 7.0998L23.2751 2.5623C25.0876 0.749801 26.6626 1.7873 27.4376 2.5623C28.1751 3.2998 28.5126 4.0748 28.4376 4.8748C28.3751 5.5123 28.0501 6.1248 27.4376 6.7248L22.9001 11.2623C22.5876 11.5748 22.0501 11.8373 21.6126 11.9123L19.8751 12.1623C19.7751 12.1873 19.6751 12.1873 19.5876 12.1873ZM24.5876 3.8998L20.0501 8.4373C20.0126 8.4748 19.9501 8.6123 19.9376 8.6748L19.7001 10.2998L21.3376 10.0748C21.3876 10.0623 21.5251 9.9998 21.5751 9.9498L26.1126 5.4123C26.3876 5.1373 26.5501 4.8873 26.5626 4.6998C26.5876 4.4373 26.3251 4.1123 26.1126 3.8998C25.4626 3.2498 25.1626 3.3248 24.5876 3.8998Z" fill="white"/>
<path d="M26.1253 7.66245C26.0378 7.66245 25.9503 7.64995 25.8753 7.62495C24.2003 7.14995 22.8628 5.81245 22.3878 4.13745C22.2503 3.63745 22.5378 3.12495 23.0378 2.98745C23.5378 2.84995 24.0503 3.13745 24.1878 3.63745C24.4878 4.68745 25.3253 5.53745 26.3878 5.83745C26.8878 5.97495 27.1753 6.49995 27.0378 6.98745C26.9003 7.38745 26.5253 7.66245 26.1253 7.66245Z" fill="white"/>
<path d="M3.33762 24.6252C3.03762 24.6252 2.73762 24.4752 2.56262 24.2127C2.27512 23.7877 2.38762 23.2002 2.81262 22.9127L8.97512 18.7752C10.3251 17.8752 12.1876 17.9752 13.4126 19.0127L13.8251 19.3752C14.4501 19.9127 15.5126 19.9127 16.1251 19.3752L21.3251 14.9127C22.6501 13.7752 24.7376 13.7752 26.0751 14.9127L28.1126 16.6627C28.5001 17.0002 28.5501 17.5877 28.2126 17.9877C27.8751 18.3752 27.2876 18.4252 26.8876 18.0877L24.8501 16.3377C24.2251 15.8002 23.1626 15.8002 22.5501 16.3377L17.3501 20.8002C16.0251 21.9377 13.9376 21.9377 12.6001 20.8002L12.1876 20.4377C11.6126 19.9502 10.6626 19.9002 10.0251 20.3377L3.87512 24.4752C3.70012 24.5752 3.51262 24.6252 3.33762 24.6252Z" fill="white"/>
</svg>
