<svg width="30" height="30" viewBox="0 0 30 30" fill="none" xmlns="http://www.w3.org/2000/svg">
<path d="M18.75 28.4375H11.25C4.4625 28.4375 1.5625 25.5375 1.5625 18.75V11.25C1.5625 4.4625 4.4625 1.5625 11.25 1.5625H18.75C25.5375 1.5625 28.4375 4.4625 28.4375 11.25V18.75C28.4375 25.5375 25.5375 28.4375 18.75 28.4375ZM11.25 3.4375C5.4875 3.4375 3.4375 5.4875 3.4375 11.25V18.75C3.4375 24.5125 5.4875 26.5625 11.25 26.5625H18.75C24.5125 26.5625 26.5625 24.5125 26.5625 18.75V11.25C26.5625 5.4875 24.5125 3.4375 18.75 3.4375H11.25Z" fill="white"/>
<path d="M9.16667 20.8333H10.3542L18.5 12.6875L17.3125 11.5L9.16667 19.6458V20.8333ZM7.5 22.5V18.9583L18.5 7.97917C18.6667 7.82639 18.8507 7.70833 19.0521 7.625C19.2535 7.54167 19.4653 7.5 19.6875 7.5C19.9097 7.5 20.125 7.54167 20.3333 7.625C20.5417 7.70833 20.7222 7.83333 20.875 8L22.0208 9.16667C22.1875 9.31944 22.309 9.5 22.3854 9.70833C22.4618 9.91667 22.5 10.125 22.5 10.3333C22.5 10.5556 22.4618 10.7674 22.3854 10.9687C22.309 11.1701 22.1875 11.3542 22.0208 11.5208L11.0417 22.5H7.5ZM17.8958 12.1042L17.3125 11.5L18.5 12.6875L17.8958 12.1042Z" fill="white"/>
</svg>
