<svg width="30" height="30" viewBox="0 0 30 30" fill="none" xmlns="http://www.w3.org/2000/svg">
<path d="M18.75 28.4375H11.25C4.4625 28.4375 1.5625 25.5375 1.5625 18.75V11.25C1.5625 4.4625 4.4625 1.5625 11.25 1.5625H18.75C25.5375 1.5625 28.4375 4.4625 28.4375 11.25V18.75C28.4375 25.5375 25.5375 28.4375 18.75 28.4375ZM11.25 3.4375C5.4875 3.4375 3.4375 5.4875 3.4375 11.25V18.75C3.4375 24.5125 5.4875 26.5625 11.25 26.5625H18.75C24.5125 26.5625 26.5625 24.5125 26.5625 18.75V11.25C26.5625 5.4875 24.5125 3.4375 18.75 3.4375H11.25Z" fill="white"/>
<path d="M8.6123 27.7879C8.0998 27.7879 7.6748 27.3629 7.6748 26.8504V3.15039C7.6748 2.63789 8.0998 2.21289 8.6123 2.21289C9.12481 2.21289 9.54981 2.62539 9.54981 3.15039V26.8504C9.54981 27.3754 9.12481 27.7879 8.6123 27.7879Z" fill="white"/>
<path d="M21.1123 27.7879C20.5998 27.7879 20.1748 27.3629 20.1748 26.8504V3.15039C20.1748 2.63789 20.5998 2.21289 21.1123 2.21289C21.6248 2.21289 22.0498 2.63789 22.0498 3.15039V26.8504C22.0498 27.3754 21.6248 27.7879 21.1123 27.7879Z" fill="white"/>
<path d="M8.6123 9.65039H3.1748C2.6623 9.65039 2.2373 9.22539 2.2373 8.71289C2.2373 8.20039 2.6623 7.77539 3.1748 7.77539H8.6123C9.1248 7.77539 9.5498 8.20039 9.5498 8.71289C9.5498 9.22539 9.1248 9.65039 8.6123 9.65039Z" fill="white"/>
<path d="M8.61211 15.9375H2.53711C2.02461 15.9375 1.59961 15.5125 1.59961 15C1.59961 14.4875 2.02461 14.0625 2.53711 14.0625H8.61211C9.12461 14.0625 9.54961 14.4875 9.54961 15C9.54961 15.5125 9.12461 15.9375 8.61211 15.9375Z" fill="white"/>
<path d="M8.61211 22.1504H3.09961C2.58711 22.1504 2.16211 21.7254 2.16211 21.2129C2.16211 20.7004 2.58711 20.2754 3.09961 20.2754H8.61211C9.12461 20.2754 9.54961 20.7004 9.54961 21.2129C9.54961 21.7254 9.12461 22.1504 8.61211 22.1504Z" fill="white"/>
<path d="M27.3623 9.65039H21.9248C21.4123 9.65039 20.9873 9.22539 20.9873 8.71289C20.9873 8.20039 21.4123 7.77539 21.9248 7.77539H27.3623C27.8748 7.77539 28.2998 8.20039 28.2998 8.71289C28.2998 9.22539 27.8748 9.65039 27.3623 9.65039Z" fill="white"/>
<path d="M27.3621 15.9375H21.2871C20.7746 15.9375 20.3496 15.5125 20.3496 15C20.3496 14.4875 20.7746 14.0625 21.2871 14.0625H27.3621C27.8746 14.0625 28.2996 14.4875 28.2996 15C28.2996 15.5125 27.8746 15.9375 27.3621 15.9375Z" fill="white"/>
<path d="M21.2129 15.9375H7.46289C6.95039 15.9375 6.52539 15.5125 6.52539 15C6.52539 14.4875 6.95039 14.0625 7.46289 14.0625H21.2129C21.7254 14.0625 22.1504 14.4875 22.1504 15C22.1504 15.5125 21.7379 15.9375 21.2129 15.9375Z" fill="white"/>
<path d="M27.3621 22.1504H21.8496C21.3371 22.1504 20.9121 21.7254 20.9121 21.2129C20.9121 20.7004 21.3371 20.2754 21.8496 20.2754H27.3621C27.8746 20.2754 28.2996 20.7004 28.2996 21.2129C28.2996 21.7254 27.8746 22.1504 27.3621 22.1504Z" fill="white"/>
</svg>
