<svg width="30" height="30" viewBox="0 0 30 30" fill="none" xmlns="http://www.w3.org/2000/svg">
<path d="M7.5 18.6125C6.9875 18.6125 6.5625 18.1875 6.5625 17.675V12.3125C6.5625 11.8 6.9875 11.375 7.5 11.375C8.0125 11.375 8.4375 11.8 8.4375 12.3125V17.675C8.4375 18.2 8.0125 18.6125 7.5 18.6125Z" fill="white"/>
<path d="M11.25 20.3996C10.7375 20.3996 10.3125 19.9746 10.3125 19.4621V10.5371C10.3125 10.0246 10.7375 9.59961 11.25 9.59961C11.7625 9.59961 12.1875 10.0246 12.1875 10.5371V19.4621C12.1875 19.9871 11.7625 20.3996 11.25 20.3996Z" fill="white"/>
<path d="M15 22.1875C14.4875 22.1875 14.0625 21.7625 14.0625 21.25V8.75C14.0625 8.2375 14.4875 7.8125 15 7.8125C15.5125 7.8125 15.9375 8.2375 15.9375 8.75V21.25C15.9375 21.7625 15.5125 22.1875 15 22.1875Z" fill="white"/>
<path d="M18.75 20.3996C18.2375 20.3996 17.8125 19.9746 17.8125 19.4621V10.5371C17.8125 10.0246 18.2375 9.59961 18.75 9.59961C19.2625 9.59961 19.6875 10.0246 19.6875 10.5371V19.4621C19.6875 19.9871 19.2625 20.3996 18.75 20.3996Z" fill="white"/>
<path d="M22.5 18.6125C21.9875 18.6125 21.5625 18.1875 21.5625 17.675V12.3125C21.5625 11.8 21.9875 11.375 22.5 11.375C23.0125 11.375 23.4375 11.8 23.4375 12.3125V17.675C23.4375 18.2 23.0125 18.6125 22.5 18.6125Z" fill="white"/>
<path d="M18.75 28.4375H11.25C4.4625 28.4375 1.5625 25.5375 1.5625 18.75V11.25C1.5625 4.4625 4.4625 1.5625 11.25 1.5625H18.75C25.5375 1.5625 28.4375 4.4625 28.4375 11.25V18.75C28.4375 25.5375 25.5375 28.4375 18.75 28.4375ZM11.25 3.4375C5.4875 3.4375 3.4375 5.4875 3.4375 11.25V18.75C3.4375 24.5125 5.4875 26.5625 11.25 26.5625H18.75C24.5125 26.5625 26.5625 24.5125 26.5625 18.75V11.25C26.5625 5.4875 24.5125 3.4375 18.75 3.4375H11.25Z" fill="white"/>
</svg>
